<svg width="114" height="39" viewBox="0 0 114 39" fill="none" xmlns="http://www.w3.org/2000/svg">
<g clip-path="url(#clip0_2009_21)">
<ellipse opacity="0.25" cx="20.5" cy="33.5" rx="13.5" ry="3.5" fill="#414141"/>
<path d="M20.25 33C28.7414 33 35.625 26.2843 35.625 18C35.625 9.71573 28.7414 3 20.25 3C11.7586 3 4.875 9.71573 4.875 18C4.875 26.2843 11.7586 33 20.25 33Z" fill="url(#paint0_linear_2009_21)" stroke="#D7DFEC" stroke-width="2"/>
<path opacity="0.3" d="M20.2514 30.2735C27.1989 30.2735 32.831 24.7788 32.831 18.0008C32.831 11.2227 27.1989 5.72803 20.2514 5.72803C13.3039 5.72803 7.67188 11.2227 7.67188 18.0008C7.67188 24.7788 13.3039 30.2735 20.2514 30.2735Z" stroke="#D7DFEC"/>
<g opacity="0.8">
<path d="M20.25 7.09033V9.81761" stroke="#D7DFEC" stroke-width="2"/>
<path d="M31.4312 18H28.6357" stroke="#D7DFEC" stroke-width="2"/>
<path d="M20.25 28.9094V26.1821" stroke="#D7DFEC" stroke-width="2"/>
<path d="M9.07031 18H11.8658" stroke="#D7DFEC" stroke-width="2"/>
</g>
<path d="M20.2481 18H14.6572" stroke="#D7DFEC" stroke-width="2.5" stroke-linecap="round"/>
<path d="M20.2495 18.0003V11.1821" stroke="#D7DFEC" stroke-width="2.5" stroke-linecap="round"/>
<path d="M20.2493 19.363C21.0212 19.363 21.647 18.7525 21.647 17.9994C21.647 17.2463 21.0212 16.6357 20.2493 16.6357C19.4773 16.6357 18.8516 17.2463 18.8516 17.9994C18.8516 18.7525 19.4773 19.363 20.2493 19.363Z" fill="#D7DFEC"/>
<path d="M42.267 28V10.5455H45.9574V24.9574H53.4403V28H42.267ZM61.7308 28.2557C60.407 28.2557 59.2621 27.9744 58.2962 27.4119C57.3359 26.8437 56.5945 26.054 56.0717 25.0426C55.549 24.0256 55.2876 22.8466 55.2876 21.5057C55.2876 20.1534 55.549 18.9716 56.0717 17.9602C56.5945 16.9432 57.3359 16.1534 58.2962 15.5909C59.2621 15.0227 60.407 14.7386 61.7308 14.7386C63.0547 14.7386 64.1967 15.0227 65.157 15.5909C66.1229 16.1534 66.8672 16.9432 67.3899 17.9602C67.9126 18.9716 68.174 20.1534 68.174 21.5057C68.174 22.8466 67.9126 24.0256 67.3899 25.0426C66.8672 26.054 66.1229 26.8437 65.157 27.4119C64.1967 27.9744 63.0547 28.2557 61.7308 28.2557ZM61.7479 25.4432C62.3501 25.4432 62.853 25.2727 63.2564 24.9318C63.6598 24.5852 63.9638 24.1136 64.1683 23.517C64.3786 22.9205 64.4837 22.2415 64.4837 21.4801C64.4837 20.7188 64.3786 20.0398 64.1683 19.4432C63.9638 18.8466 63.6598 18.375 63.2564 18.0284C62.853 17.6818 62.3501 17.5085 61.7479 17.5085C61.1399 17.5085 60.6286 17.6818 60.2138 18.0284C59.8047 18.375 59.495 18.8466 59.2848 19.4432C59.0803 20.0398 58.978 20.7188 58.978 21.4801C58.978 22.2415 59.0803 22.9205 59.2848 23.517C59.495 24.1136 59.8047 24.5852 60.2138 24.9318C60.6286 25.2727 61.1399 25.4432 61.7479 25.4432ZM76.4325 33.1818C75.2564 33.1818 74.2479 33.0199 73.407 32.696C72.5717 32.3778 71.907 31.9432 71.4126 31.392C70.9183 30.8409 70.5973 30.2216 70.4496 29.5341L73.8075 29.0824C73.9098 29.3438 74.0717 29.5881 74.2933 29.8153C74.5149 30.0426 74.8075 30.2244 75.1712 30.3608C75.5405 30.5028 75.9893 30.5739 76.5178 30.5739C77.3075 30.5739 77.9581 30.3807 78.4695 29.9943C78.9865 29.6136 79.245 28.9744 79.245 28.0767V25.6818H79.0916C78.9325 26.0455 78.6939 26.3892 78.3757 26.7131C78.0575 27.0369 77.6484 27.3011 77.1484 27.5057C76.6484 27.7102 76.0518 27.8125 75.3587 27.8125C74.3757 27.8125 73.4808 27.5852 72.674 27.1307C71.8729 26.6705 71.2337 25.9687 70.7564 25.0256C70.2848 24.0767 70.049 22.8778 70.049 21.429C70.049 19.946 70.2905 18.7074 70.7734 17.7131C71.2564 16.7187 71.8984 15.9744 72.6996 15.4801C73.5064 14.9858 74.3899 14.7386 75.3501 14.7386C76.0831 14.7386 76.6967 14.8636 77.1911 15.1136C77.6854 15.358 78.0831 15.6648 78.3842 16.0341C78.6911 16.3977 78.9268 16.7557 79.0916 17.108H79.228V14.9091H82.8331V28.1278C82.8331 29.2415 82.5604 30.1733 82.0149 30.9233C81.4695 31.6733 80.7138 32.2358 79.7479 32.6108C78.7876 32.9915 77.6825 33.1818 76.4325 33.1818ZM76.5092 25.0852C77.0945 25.0852 77.5888 24.9403 77.9922 24.6506C78.4013 24.3551 78.7138 23.9347 78.9297 23.3892C79.1513 22.8381 79.2621 22.179 79.2621 21.4119C79.2621 20.6449 79.1541 19.9801 78.9382 19.4176C78.7223 18.8494 78.4098 18.4091 78.0007 18.0966C77.5916 17.7841 77.0945 17.6278 76.5092 17.6278C75.9126 17.6278 75.4098 17.7898 75.0007 18.1136C74.5916 18.4318 74.282 18.875 74.0717 19.4432C73.8615 20.0114 73.7564 20.6676 73.7564 21.4119C73.7564 22.1676 73.8615 22.821 74.0717 23.3722C74.2876 23.9176 74.5973 24.3409 75.0007 24.642C75.4098 24.9375 75.9126 25.0852 76.5092 25.0852ZM96.6143 18.642L93.2905 18.8466C93.2337 18.5625 93.1115 18.3068 92.924 18.0795C92.7365 17.8466 92.4893 17.6619 92.1825 17.5256C91.8814 17.3835 91.5206 17.3125 91.1001 17.3125C90.5376 17.3125 90.0632 17.4318 89.6768 17.6705C89.2905 17.9034 89.0973 18.2159 89.0973 18.608C89.0973 18.9205 89.2223 19.1847 89.4723 19.4006C89.7223 19.6165 90.1513 19.7898 90.7592 19.9205L93.1286 20.3977C94.4013 20.6591 95.3501 21.0795 95.9751 21.6591C96.6001 22.2386 96.9126 23 96.9126 23.9432C96.9126 24.8011 96.6598 25.554 96.1541 26.2017C95.6541 26.8494 94.9666 27.3551 94.0916 27.7188C93.2223 28.0767 92.2195 28.2557 91.0831 28.2557C89.3501 28.2557 87.9695 27.8949 86.9411 27.1733C85.9183 26.446 85.3189 25.4574 85.1428 24.2074L88.7138 24.0199C88.8217 24.5483 89.0831 24.9517 89.4979 25.2301C89.9126 25.5028 90.4439 25.6392 91.0916 25.6392C91.728 25.6392 92.2393 25.517 92.6257 25.2727C93.0178 25.0227 93.2166 24.7017 93.2223 24.3097C93.2166 23.9801 93.0774 23.7102 92.8047 23.5C92.532 23.2841 92.1115 23.1193 91.5433 23.0057L89.2763 22.554C87.9979 22.2983 87.0462 21.8551 86.4212 21.2244C85.8018 20.5937 85.4922 19.7898 85.4922 18.8125C85.4922 17.9716 85.7195 17.2472 86.174 16.6392C86.6342 16.0312 87.2791 15.5625 88.1087 15.233C88.9439 14.9034 89.9212 14.7386 91.0405 14.7386C92.6939 14.7386 93.995 15.0881 94.9439 15.7869C95.8984 16.4858 96.4553 17.4375 96.6143 18.642ZM101.44 32.9091C100.98 32.9091 100.548 32.8722 100.145 32.7983C99.7472 32.7301 99.4176 32.642 99.1562 32.5341L99.9744 29.8239C100.401 29.9545 100.784 30.0256 101.125 30.0369C101.472 30.0483 101.77 29.9688 102.02 29.7983C102.276 29.6278 102.483 29.3381 102.642 28.929L102.855 28.375L98.1591 14.9091H101.977L104.688 24.5227H104.824L107.56 14.9091H111.403L106.315 29.4148C106.071 30.1193 105.739 30.733 105.318 31.2557C104.903 31.7841 104.378 32.1903 103.741 32.4744C103.105 32.7642 102.338 32.9091 101.44 32.9091Z" fill="#D7DFEC"/>
</g>
<defs>
<linearGradient id="paint0_linear_2009_21" x1="4.875" y1="3" x2="3003.96" y2="3077.06" gradientUnits="userSpaceOnUse">
<stop stop-color="#4F46E5"/>
<stop offset="1" stop-color="#7C3AED"/>
</linearGradient>
<clipPath id="clip0_2009_21">
<rect width="114" height="39" fill="white"/>
</clipPath>
</defs>
</svg>
